<?xml version="1.0" encoding="utf-8"?>
<!-- Generator: Adobe Illustrator 28.3.0, SVG Export Plug-In . SVG Version: 6.00 Build 0)  -->
<svg version="1.1" id="Calque_1" xmlns="http://www.w3.org/2000/svg" xmlns:xlink="http://www.w3.org/1999/xlink" x="0px" y="0px"
	 viewBox="0 0 227.43 176.31" style="enable-background:new 0 0 227.43 176.31;" xml:space="preserve">
<style type="text/css">
	.st0{stroke:#3C3C3B;stroke-width:7;stroke-miterlimit:10;}
	.st1{fill:#FFED00;}
	.st2{fill:none;stroke:#3C3C3B;stroke-width:7;stroke-miterlimit:10;}
</style>
<g>
	<rect x="0.62" y="-0.37" class="st0" width="226.81" height="176.68"/>
	<path class="st1" d="M16.27,10.27v2.35h-4.7v11.75h4.7v2.35H9.22V10.27H16.27z M18.62,14.97h-2.35v-2.35h2.35V14.97z M18.62,24.37
		h-2.35v-2.35h2.35V24.37z M20.97,22.02h-2.35v-7.05h2.35V22.02z"/>
	<path class="st1" d="M25.67,22.02v2.35h-2.35v-7.05h2.35v2.35h7.05v-2.35h2.35v4.7H25.67z M32.73,17.32h-7.05v-2.35h7.05V17.32z
		 M35.08,26.72h-9.4v-2.35h9.4V26.72z M30.37,12.62h-2.35v-2.35h2.35V12.62z M32.73,10.27h-2.35V7.91h2.35V10.27z"/>
	<path class="st1" d="M39.78,26.72v4.7h-2.35v-14.1h2.35v7.05h7.05v2.35H39.78z M46.83,17.32h-7.05v-2.35h7.05V17.32z M49.18,24.37
		h-2.35v-7.05h2.35V24.37z"/>
	<path class="st1" d="M53.88,24.37h-2.35v-7.05h2.35V24.37z M58.58,17.32h-4.7v-2.35h4.7V17.32z M58.58,26.72h-4.7v-2.35h4.7V26.72z
		 M60.93,19.67h-2.35v-2.35h2.35v-2.35h2.35v11.75h-2.35v-2.35h-2.35v-2.35h2.35V19.67z"/>
	<path class="st1" d="M67.98,22.02v4.7h-2.35V14.97h2.35v4.7h2.35v2.35H67.98z M72.68,19.67h-2.35v-2.35h2.35V19.67z M77.39,17.32
		h-4.7v-2.35h4.7V17.32z"/>
	<path class="st1" d="M86.79,14.97h4.7v2.35h-4.7v7.05h2.35v2.35h-4.7v-9.4h-4.7v-2.35h4.7v-4.7h2.35V14.97z"/>
	<path class="st1" d="M96.19,19.67h-2.35v-2.35h2.35V19.67z M103.24,26.72h-9.4v-2.35h9.4V26.72z M105.59,17.32h-9.4v-2.35h9.4
		V17.32z M103.24,22.02h-7.05v-2.35h7.05V22.02z M105.59,24.37h-2.35v-2.35h2.35V24.37z"/>
	<line class="st2" x1="0.62" y1="35.84" x2="226.07" y2="35.84"/>
</g>
</svg>
