<?xml version="1.0" encoding="utf-8"?>
<!-- Generator: Adobe Illustrator 28.3.0, SVG Export Plug-In . SVG Version: 6.00 Build 0)  -->
<svg version="1.1" id="Calque_1" xmlns="http://www.w3.org/2000/svg" xmlns:xlink="http://www.w3.org/1999/xlink" x="0px" y="0px"
	 viewBox="0 0 209.2 16.45" style="enable-background:new 0 0 209.2 16.45;" xml:space="preserve">
<style type="text/css">
	.st0{fill:#FFED00;}
</style>
<g>
	<path class="st0" d="M7.05,14.1h4.7v2.35H0V14.1h4.7V2.35H0V0h7.05V14.1z"/>
	<path class="st0" d="M23.51,11.75v4.7h-2.35v-4.7H14.1v-4.7h2.35V9.4h4.7V4.7H18.8V2.35h2.35V0h2.35v9.4h2.35v2.35H23.51z
		 M18.8,7.05h-2.35V4.7h2.35V7.05z"/>
	<path class="st0" d="M30.56,9.4v7.05h-2.35V0h2.35v7.05h2.35V9.4H30.56z M37.61,7.05h-4.7V4.7h4.7V7.05z M39.96,16.45h-2.35v-9.4
		h2.35V16.45z"/>
	<path class="st0" d="M49.36,14.1h4.7v2.35H42.31V14.1h4.7V2.35h-4.7V0h7.05V14.1z"/>
	<path class="st0" d="M58.76,7.05h7.05V9.4h-9.4V0h11.75v2.35h-9.4V7.05z M58.76,14.1h-2.35v-2.35h2.35V14.1z M65.82,16.45h-7.05
		V14.1h7.05V16.45z M68.17,14.1h-2.35V9.4h2.35V14.1z"/>
	<path class="st0" d="M101.07,14.1h-2.35V2.35h2.35V14.1z M108.13,2.35h-7.05V0h7.05V2.35z M108.13,16.45h-7.05V14.1h7.05V16.45z
		 M108.13,9.4h-4.7V7.05h7.05v7.05h-2.35V9.4z"/>
	<path class="st0" d="M115.18,11.75v4.7h-2.35V4.7h2.35v4.7h2.35v2.35H115.18z M119.88,9.4h-2.35V7.05h2.35V9.4z M124.58,7.05h-4.7
		V4.7h4.7V7.05z"/>
	<path class="st0" d="M129.28,11.75v2.35h-2.35V7.05h2.35V9.4h7.05V7.05h2.35v4.7H129.28z M136.33,7.05h-7.05V4.7h7.05V7.05z
		 M138.68,16.45h-9.4V14.1h9.4V16.45z"/>
	<path class="st0" d="M143.38,9.4v7.05h-2.35V4.7h2.35v2.35h2.35V9.4H143.38z M150.44,7.05h-4.7V4.7h4.7V7.05z M152.79,16.45h-2.35
		v-9.4h2.35V16.45z"/>
	<path class="st0" d="M157.49,14.1h-2.35V7.05h2.35V14.1z M164.54,7.05h-7.05V4.7h7.05V7.05z M164.54,16.45h-7.05V14.1h7.05V16.45z
		 M166.89,14.1h-2.35V7.05h2.35V14.1z"/>
	<path class="st0" d="M171.59,7.05h2.35V9.4h-2.35v2.35h2.35v2.35h-2.35v2.35h-2.35V0h2.35V7.05z M173.94,7.05V4.7h4.7v2.35H173.94z
		 M173.94,16.45V14.1h4.7v2.35H173.94z M178.64,14.1V7.05h2.35v7.05H178.64z"/>
	<path class="st0" d="M183.34,16.45V4.7h2.35v9.4h9.4v2.35H183.34z"/>
	<path class="st0" d="M199.8,11.75v2.35h-2.35V7.05h2.35V9.4h7.05V7.05h2.35v4.7H199.8z M206.85,7.05h-7.05V4.7h7.05V7.05z
		 M209.2,16.45h-9.4V14.1h9.4V16.45z"/>
</g>
</svg>
