<?xml version="1.0" encoding="utf-8"?>
<!-- Generator: Adobe Illustrator 28.3.0, SVG Export Plug-In . SVG Version: 6.00 Build 0)  -->
<svg version="1.1" id="Calque_1" xmlns="http://www.w3.org/2000/svg" xmlns:xlink="http://www.w3.org/1999/xlink" x="0px" y="0px"
	 viewBox="0 0 209.2 16.45" style="enable-background:new 0 0 209.2 16.45;" xml:space="preserve">
<style type="text/css">
	.st0{fill:#FFED00;}
</style>
<g>
	<path class="st0" d="M7.05,14.1h4.7v2.35H0V14.1h4.7V2.35H0V0h7.05V14.1z"/>
	<path class="st0" d="M23.51,2.35h-9.4V0h11.75v7.05h-2.35V2.35z M16.45,16.45H14.1V14.1h2.35V16.45z M18.8,14.1h-2.35v-2.35h2.35
		V14.1z M21.16,11.75H18.8V9.4h2.35V11.75z M23.51,9.4h-2.35V7.05h2.35V9.4z"/>
	<path class="st0" d="M30.56,9.4v7.05h-2.35V0h2.35v7.05h2.35V9.4H30.56z M37.61,7.05h-4.7V4.7h4.7V7.05z M39.96,16.45h-2.35v-9.4
		h2.35V16.45z"/>
	<path class="st0" d="M51.71,11.75v4.7h-2.35v-4.7h-7.05v-4.7h2.35V9.4h4.7V4.7h-2.35V2.35h2.35V0h2.35v9.4h2.35v2.35H51.71z
		 M47.01,7.05h-2.35V4.7h2.35V7.05z"/>
	<path class="st0" d="M58.76,7.05h7.05V9.4h-9.4V0h11.75v2.35h-9.4V7.05z M58.76,14.1h-2.35v-2.35h2.35V14.1z M65.82,16.45h-7.05
		V14.1h7.05V16.45z M68.17,14.1h-2.35V9.4h2.35V14.1z"/>
	<path class="st0" d="M150.44,0v2.35h-7.05v4.7h7.05V9.4h-2.35v2.35h-2.35V9.4h-2.35v7.05h-2.35V0H150.44z M150.44,14.1h-2.35v-2.35
		h2.35V14.1z M152.79,7.05h-2.35v-4.7h2.35V7.05z M152.79,16.45h-2.35V14.1h2.35V16.45z"/>
	<path class="st0" d="M157.49,14.1h-2.35V7.05h2.35V14.1z M164.54,7.05h-7.05V4.7h7.05V7.05z M164.54,16.45h-7.05V14.1h7.05V16.45z
		 M166.89,14.1h-2.35V7.05h2.35V14.1z"/>
	<path class="st0" d="M171.59,14.1h-2.35V4.7h2.35V14.1z M178.64,16.45h-7.05V14.1h7.05V16.45z M180.99,14.1h-2.35V4.7h2.35V14.1z"
		/>
	<path class="st0" d="M185.69,11.75v2.35h-2.35V7.05h2.35V9.4h7.05V7.05h2.35v4.7H185.69z M192.75,7.05h-7.05V4.7h7.05V7.05z
		 M195.1,16.45h-9.4V14.1h9.4V16.45z"/>
	<path class="st0" d="M199.8,9.4v7.05h-2.35V4.7h2.35v2.35h2.35V9.4H199.8z M206.85,7.05h-4.7V4.7h4.7V7.05z M209.2,16.45h-2.35
		v-9.4h2.35V16.45z"/>
</g>
</svg>
