<?xml version="1.0" encoding="utf-8"?>
<!-- Generator: Adobe Illustrator 28.3.0, SVG Export Plug-In . SVG Version: 6.00 Build 0)  -->
<svg version="1.1" id="Calque_1" xmlns="http://www.w3.org/2000/svg" xmlns:xlink="http://www.w3.org/1999/xlink" x="0px" y="0px"
	 viewBox="0 0 195.1 16.45" style="enable-background:new 0 0 195.1 16.45;" xml:space="preserve">
<style type="text/css">
	.st0{fill:#FFED00;}
</style>
<g>
	<path class="st0" d="M7.05,14.1h4.7v2.35H0V14.1h4.7V2.35H0V0h7.05V14.1z"/>
	<path class="st0" d="M16.45,4.7H14.1V2.35h2.35V4.7z M18.8,14.1h7.05v2.35H14.1V14.1h2.35v-2.35h2.35V14.1z M23.51,2.35h-7.05V0
		h7.05V2.35z M21.16,11.75H18.8V9.4h2.35V11.75z M23.51,9.4h-2.35V7.05h2.35V9.4z M25.86,7.05h-2.35v-4.7h2.35V7.05z"/>
	<path class="st0" d="M30.56,9.4v7.05h-2.35V0h2.35v7.05h2.35V9.4H30.56z M37.61,7.05h-4.7V4.7h4.7V7.05z M39.96,16.45h-2.35v-9.4
		h2.35V16.45z"/>
	<path class="st0" d="M44.66,4.7h-2.35V2.35h2.35V4.7z M44.66,14.1h-2.35v-2.35h2.35V14.1z M51.71,2.35h-7.05V0h7.05V2.35z
		 M51.71,16.45h-7.05V14.1h7.05V16.45z M51.71,9.4h-4.7V7.05h4.7V9.4z M54.06,7.05h-2.35v-4.7h2.35V7.05z M54.06,14.1h-2.35V9.4
		h2.35V14.1z"/>
	<path class="st0" d="M58.76,14.1h-2.35V2.35h2.35V14.1z M65.82,2.35h-7.05V0h7.05V2.35z M65.82,16.45h-7.05V14.1h7.05V16.45z
		 M63.47,9.4h-2.35V7.05h2.35V9.4z M68.17,14.1h-2.35V2.35h2.35V14.1z"/>
	<path class="st0" d="M136.33,0v2.35h-7.05v4.7h7.05V9.4h-7.05v7.05h-2.35V0H136.33z M138.68,7.05h-2.35v-4.7h2.35V7.05z"/>
	<path class="st0" d="M143.38,14.1h-2.35V7.05h2.35V14.1z M148.09,7.05h-4.7V4.7h4.7V7.05z M148.09,16.45h-4.7V14.1h4.7V16.45z
		 M150.44,9.4h-2.35V7.05h2.35V4.7h2.35v11.75h-2.35V14.1h-2.35v-2.35h2.35V9.4z"/>
	<path class="st0" d="M157.49,11.75v4.7h-2.35V4.7h2.35v4.7h2.35v2.35H157.49z M162.19,9.4h-2.35V7.05h2.35V9.4z M166.89,7.05h-4.7
		V4.7h4.7V7.05z"/>
	<path class="st0" d="M173.94,7.05h-4.7V4.7h11.75v2.35h-4.7v7.05h4.7v2.35h-11.75V14.1h4.7V7.05z"/>
	<path class="st0" d="M185.69,9.4h-2.35V7.05h2.35V9.4z M192.75,16.45h-9.4V14.1h9.4V16.45z M195.1,7.05h-9.4V4.7h9.4V7.05z
		 M192.75,11.75h-7.05V9.4h7.05V11.75z M195.1,14.1h-2.35v-2.35h2.35V14.1z"/>
</g>
</svg>
