<?xml version="1.0" encoding="utf-8"?>
<!-- Generator: Adobe Illustrator 28.3.0, SVG Export Plug-In . SVG Version: 6.00 Build 0)  -->
<svg version="1.1" id="Calque_1" xmlns="http://www.w3.org/2000/svg" xmlns:xlink="http://www.w3.org/1999/xlink" x="0px" y="0px"
	 viewBox="0 0 209.2 21.16" style="enable-background:new 0 0 209.2 21.16;" xml:space="preserve">
<style type="text/css">
	.st0{fill:#FFED00;}
</style>
<path class="st0" d="M7.05,14.1h4.7v2.35H0V14.1h4.7V2.35H0V0h7.05V14.1z"/>
<path class="st0" d="M16.45,9.4v4.7H14.1V2.35h2.35v4.7h7.05V9.4H16.45z M23.51,2.35h-7.05V0h7.05V2.35z M23.51,16.45h-7.05V14.1
	h7.05V16.45z M25.86,4.7h-2.35V2.35h2.35V4.7z M25.86,14.1h-2.35V9.4h2.35V14.1z"/>
<path class="st0" d="M30.56,9.4v7.05h-2.35V0h2.35v7.05h2.35V9.4H30.56z M37.61,7.05h-4.7V4.7h4.7V7.05z M39.96,16.45h-2.35v-9.4
	h2.35V16.45z"/>
<path class="st0" d="M44.66,14.1h-2.35V2.35h2.35V14.1z M51.71,2.35h-7.05V0h7.05V2.35z M51.71,16.45h-7.05V14.1h7.05V16.45z
	 M49.36,9.4h-2.35V7.05h2.35V9.4z M54.06,14.1h-2.35V2.35h2.35V14.1z"/>
<path class="st0" d="M58.76,14.1h-2.35V2.35h2.35V14.1z M65.82,2.35h-7.05V0h7.05V2.35z M65.82,16.45h-7.05V14.1h7.05V16.45z
	 M63.47,9.4h-2.35V7.05h2.35V9.4z M68.17,14.1h-2.35V2.35h2.35V14.1z"/>
<path class="st0" d="M155.14,16.45V0h2.35v14.1h9.4v2.35H155.14z"/>
<path class="st0" d="M171.59,9.4h-2.35V4.7h2.35V9.4z M173.94,21.16h-4.7V18.8h4.7V21.16z M173.94,14.1h-2.35V9.4h2.35V14.1z
	 M176.29,18.8h-2.35v-4.7h2.35V18.8z M178.64,14.1h-2.35V9.4h2.35V14.1z M180.99,9.4h-2.35V4.7h2.35V9.4z"/>
<path class="st0" d="M185.69,14.1h-2.35V7.05h2.35V14.1z M192.75,7.05h-7.05V4.7h7.05V7.05z M192.75,16.45h-7.05V14.1h7.05V16.45z
	 M195.1,14.1h-2.35V7.05h2.35V14.1z"/>
<path class="st0" d="M199.8,9.4v7.05h-2.35V4.7h2.35v2.35h2.35V9.4H199.8z M206.85,7.05h-4.7V4.7h4.7V7.05z M209.2,16.45h-2.35v-9.4
	h2.35V16.45z"/>
</svg>
